<mxfile host="app.diagrams.net" modified="2021-07-05T07:10:12.838Z" agent="5.0 (Macintosh; Intel Mac OS X 10_15_7) AppleWebKit/537.36 (KHTML, like Gecko) Chrome/90.0.4430.212 Safari/537.36" etag="nU-BEnNj217FXhxm5lTd" version="14.8.4" type="github">
  <diagram name="Page-1" id="197159a0-c6a4-9194-75a8-e4174976684c">
    <mxGraphModel dx="988" dy="617" grid="1" gridSize="10" guides="1" tooltips="1" connect="1" arrows="1" fold="1" page="1" pageScale="1.5" pageWidth="1169" pageHeight="826" background="none" math="0" shadow="0">
      <root>
        <mxCell id="0" style=";html=1;" />
        <mxCell id="1" style=";html=1;" parent="0" />
        <mxCell id="Ia_0Pb1hb-mNGVRj7UpO-9" value="区块链应用平台" style="rounded=0;whiteSpace=wrap;html=1;fontSize=23;align=center;labelPosition=center;verticalLabelPosition=top;verticalAlign=bottom;" vertex="1" parent="1">
          <mxGeometry x="270" y="450" width="500" height="290" as="geometry" />
        </mxCell>
        <mxCell id="Ia_0Pb1hb-mNGVRj7UpO-1" value="pod" style="rounded=1;whiteSpace=wrap;html=1;align=right;fontSize=24;labelPosition=left;verticalLabelPosition=top;verticalAlign=bottom;" vertex="1" parent="1">
          <mxGeometry x="320" y="530" width="430" height="160" as="geometry" />
        </mxCell>
        <mxCell id="Ia_0Pb1hb-mNGVRj7UpO-6" value="发起调用" style="edgeStyle=orthogonalEdgeStyle;rounded=0;orthogonalLoop=1;jettySize=auto;html=1;exitX=1;exitY=0.25;exitDx=0;exitDy=0;entryX=0;entryY=0.25;entryDx=0;entryDy=0;fontSize=19;" edge="1" parent="1" source="Ia_0Pb1hb-mNGVRj7UpO-2" target="Ia_0Pb1hb-mNGVRj7UpO-3">
          <mxGeometry relative="1" as="geometry" />
        </mxCell>
        <mxCell id="Ia_0Pb1hb-mNGVRj7UpO-2" value="可信存证容器" style="rounded=0;whiteSpace=wrap;html=1;fontSize=24;" vertex="1" parent="1">
          <mxGeometry x="350" y="580" width="120" height="60" as="geometry" />
        </mxCell>
        <mxCell id="Ia_0Pb1hb-mNGVRj7UpO-3" value="边车容器" style="rounded=0;whiteSpace=wrap;html=1;fontSize=24;" vertex="1" parent="1">
          <mxGeometry x="600" y="580" width="120" height="60" as="geometry" />
        </mxCell>
        <mxCell id="Ia_0Pb1hb-mNGVRj7UpO-7" value="" style="endArrow=classic;html=1;fontSize=19;exitX=0;exitY=0.75;exitDx=0;exitDy=0;entryX=1;entryY=0.75;entryDx=0;entryDy=0;" edge="1" parent="1" source="Ia_0Pb1hb-mNGVRj7UpO-3" target="Ia_0Pb1hb-mNGVRj7UpO-2">
          <mxGeometry width="50" height="50" relative="1" as="geometry">
            <mxPoint x="230" y="740" as="sourcePoint" />
            <mxPoint x="470" y="630" as="targetPoint" />
          </mxGeometry>
        </mxCell>
        <mxCell id="Ia_0Pb1hb-mNGVRj7UpO-8" value="健康探测" style="edgeLabel;html=1;align=center;verticalAlign=middle;resizable=0;points=[];fontSize=19;" vertex="1" connectable="0" parent="Ia_0Pb1hb-mNGVRj7UpO-7">
          <mxGeometry x="-0.1253" y="-3" relative="1" as="geometry">
            <mxPoint as="offset" />
          </mxGeometry>
        </mxCell>
        <mxCell id="Ia_0Pb1hb-mNGVRj7UpO-10" value="ESF" style="rounded=1;whiteSpace=wrap;html=1;fontSize=23;labelPosition=center;verticalLabelPosition=top;align=center;verticalAlign=bottom;" vertex="1" parent="1">
          <mxGeometry x="860" y="380" width="160" height="450" as="geometry" />
        </mxCell>
        <mxCell id="Ia_0Pb1hb-mNGVRj7UpO-11" value="注册中心" style="rounded=1;whiteSpace=wrap;html=1;fontSize=20;labelPosition=center;verticalLabelPosition=top;align=center;verticalAlign=bottom;" vertex="1" parent="1">
          <mxGeometry x="880" y="430" width="120" height="200" as="geometry" />
        </mxCell>
        <mxCell id="Ia_0Pb1hb-mNGVRj7UpO-12" value="服务发现" style="rounded=1;whiteSpace=wrap;html=1;fontSize=20;align=center;verticalAlign=middle;" vertex="1" parent="1">
          <mxGeometry x="885" y="440" width="110" height="50" as="geometry" />
        </mxCell>
        <mxCell id="Ia_0Pb1hb-mNGVRj7UpO-13" value="服务注册" style="rounded=1;whiteSpace=wrap;html=1;fontSize=20;align=center;verticalAlign=middle;" vertex="1" parent="1">
          <mxGeometry x="885" y="500" width="110" height="50" as="geometry" />
        </mxCell>
        <mxCell id="Ia_0Pb1hb-mNGVRj7UpO-14" value="服务续约" style="rounded=1;whiteSpace=wrap;html=1;fontSize=20;align=center;verticalAlign=middle;" vertex="1" parent="1">
          <mxGeometry x="885" y="560" width="110" height="50" as="geometry" />
        </mxCell>
        <mxCell id="Ia_0Pb1hb-mNGVRj7UpO-15" value="" style="endArrow=classic;html=1;fontSize=20;exitX=1;exitY=0.25;exitDx=0;exitDy=0;" edge="1" parent="1" source="Ia_0Pb1hb-mNGVRj7UpO-3">
          <mxGeometry width="50" height="50" relative="1" as="geometry">
            <mxPoint x="730" y="390" as="sourcePoint" />
            <mxPoint x="880" y="496" as="targetPoint" />
            <Array as="points">
              <mxPoint x="800" y="595" />
              <mxPoint x="800" y="496" />
            </Array>
          </mxGeometry>
        </mxCell>
        <mxCell id="Ia_0Pb1hb-mNGVRj7UpO-16" value="配置中心" style="rounded=1;whiteSpace=wrap;html=1;fontSize=20;align=center;verticalAlign=middle;" vertex="1" parent="1">
          <mxGeometry x="880" y="650" width="120" height="60" as="geometry" />
        </mxCell>
        <mxCell id="Ia_0Pb1hb-mNGVRj7UpO-17" value="" style="endArrow=classic;html=1;fontSize=20;exitX=1;exitY=0.5;exitDx=0;exitDy=0;entryX=0;entryY=0.5;entryDx=0;entryDy=0;" edge="1" parent="1" source="Ia_0Pb1hb-mNGVRj7UpO-3" target="Ia_0Pb1hb-mNGVRj7UpO-16">
          <mxGeometry width="50" height="50" relative="1" as="geometry">
            <mxPoint x="710" y="810" as="sourcePoint" />
            <mxPoint x="760" y="760" as="targetPoint" />
            <Array as="points">
              <mxPoint x="800" y="610" />
              <mxPoint x="800" y="680" />
            </Array>
          </mxGeometry>
        </mxCell>
        <mxCell id="Ia_0Pb1hb-mNGVRj7UpO-18" value="行内其他系统" style="rounded=0;whiteSpace=wrap;html=1;fontSize=23;align=center;labelPosition=center;verticalLabelPosition=top;verticalAlign=bottom;" vertex="1" parent="1">
          <mxGeometry x="1110" y="390" width="120" height="280" as="geometry" />
        </mxCell>
        <mxCell id="Ia_0Pb1hb-mNGVRj7UpO-19" value="服务调用" style="endArrow=classic;html=1;fontSize=18;" edge="1" parent="1">
          <mxGeometry width="50" height="50" relative="1" as="geometry">
            <mxPoint x="1113" y="520" as="sourcePoint" />
            <mxPoint x="1000" y="520" as="targetPoint" />
          </mxGeometry>
        </mxCell>
        <mxCell id="Ia_0Pb1hb-mNGVRj7UpO-20" value="手机银行" style="rounded=1;whiteSpace=wrap;html=1;fontSize=20;align=center;verticalAlign=middle;" vertex="1" parent="1">
          <mxGeometry x="1120" y="420" width="100" height="50" as="geometry" />
        </mxCell>
        <mxCell id="Ia_0Pb1hb-mNGVRj7UpO-21" value="网银系统" style="rounded=1;whiteSpace=wrap;html=1;fontSize=20;align=center;verticalAlign=middle;" vertex="1" parent="1">
          <mxGeometry x="1120" y="500" width="100" height="50" as="geometry" />
        </mxCell>
        <mxCell id="Ia_0Pb1hb-mNGVRj7UpO-22" value="财富系统" style="rounded=1;whiteSpace=wrap;html=1;fontSize=20;align=center;verticalAlign=middle;" vertex="1" parent="1">
          <mxGeometry x="1120" y="580" width="100" height="50" as="geometry" />
        </mxCell>
        <mxCell id="Ia_0Pb1hb-mNGVRj7UpO-23" value="安全中心" style="rounded=1;whiteSpace=wrap;html=1;fontSize=20;align=center;verticalAlign=middle;" vertex="1" parent="1">
          <mxGeometry x="880" y="760" width="120" height="60" as="geometry" />
        </mxCell>
        <mxCell id="Ia_0Pb1hb-mNGVRj7UpO-24" value="" style="endArrow=classic;html=1;fontSize=18;" edge="1" parent="1" source="Ia_0Pb1hb-mNGVRj7UpO-23">
          <mxGeometry width="50" height="50" relative="1" as="geometry">
            <mxPoint x="890" y="750" as="sourcePoint" />
            <mxPoint x="940" y="710" as="targetPoint" />
          </mxGeometry>
        </mxCell>
        <mxCell id="Ia_0Pb1hb-mNGVRj7UpO-25" value="下发密钥" style="edgeLabel;html=1;align=center;verticalAlign=middle;resizable=0;points=[];fontSize=15;" vertex="1" connectable="0" parent="Ia_0Pb1hb-mNGVRj7UpO-24">
          <mxGeometry x="0.1333" relative="1" as="geometry">
            <mxPoint as="offset" />
          </mxGeometry>
        </mxCell>
      </root>
    </mxGraphModel>
  </diagram>
</mxfile>
